<svg width="433" height="433" viewBox="0 0 433 433" fill="none" xmlns="http://www.w3.org/2000/svg">
<rect x="5" y="5" width="423" height="423" rx="211.5" fill="white"/>
<rect x="5" y="5" width="423" height="423" rx="211.5" stroke="#3C6D78" stroke-width="10"/>
<path d="M44 205.85C44 198.687 49.8068 192.88 56.9699 192.88H376.03C383.193 192.88 389 198.687 389 205.85V246.056C389 253.219 383.193 259.026 376.03 259.026H56.9699C49.8068 259.026 44 253.219 44 246.056V205.85Z" fill="#3C6D78"/>
<path d="M359.169 250.596C359.169 272.443 341.168 290.154 318.962 290.154C296.757 290.154 278.756 272.443 278.756 250.596C278.756 228.748 296.757 211.038 318.962 211.038C341.168 211.038 359.169 228.748 359.169 250.596Z" fill="#3C6D78"/>
<path d="M145.165 250.596C145.165 272.443 127.164 290.154 104.959 290.154C82.7531 290.154 64.7519 272.443 64.7519 250.596C64.7519 228.748 82.7531 211.038 104.959 211.038C127.164 211.038 145.165 228.748 145.165 250.596Z" fill="#3C6D78"/>
<path d="M80.481 144.742C82.9506 140.288 89.354 140.288 91.8235 144.742L121.81 198.814C124.207 203.136 121.081 208.444 116.138 208.444H56.1661C51.2236 208.444 48.0978 203.136 50.4948 198.814L80.481 144.742Z" fill="#3C6D78"/>
<path d="M278.526 147.94C281.088 144.045 286.8 144.045 289.362 147.94L327.88 206.501C330.716 210.813 327.623 216.55 322.461 216.55H245.426C240.264 216.55 237.171 210.813 240.008 206.501L278.526 147.94Z" fill="#3C6D78"/>
<path d="M81.6128 147.485C81.6128 143.903 84.5162 141 88.0977 141H281.35C284.931 141 287.835 143.906 287.835 147.487C287.835 166.343 287.835 179.209 287.835 198.065C287.835 201.647 284.931 204.553 281.35 204.553H88.0977C84.5162 204.553 81.6128 201.649 81.6128 198.068V147.485Z" fill="#3C6D78"/>
<path d="M389 211.038C385.56 211.038 382.261 212.404 379.829 214.836C377.397 217.269 376.03 220.568 376.03 224.008C376.03 227.447 377.397 230.746 379.829 233.179C382.261 235.611 385.56 236.977 389 236.977V211.038Z" fill="#3C6D78"/>
</svg>
